<?xml version="1.0" encoding="utf-8"?>
<!-- Generator: Adobe Illustrator 16.0.0, SVG Export Plug-In . SVG Version: 6.00 Build 0)  -->
<!DOCTYPE svg PUBLIC "-//W3C//DTD SVG 1.1//EN" "http://www.w3.org/Graphics/SVG/1.1/DTD/svg11.dtd" [
	<!ENTITY ns_flows "http://ns.adobe.com/Flows/1.0/">
	<!ENTITY ns_extend "http://ns.adobe.com/Extensibility/1.0/">
	<!ENTITY ns_ai "http://ns.adobe.com/AdobeIllustrator/10.0/">
	<!ENTITY ns_graphs "http://ns.adobe.com/Graphs/1.0/">
	<!ENTITY ns_vars "http://ns.adobe.com/Variables/1.0/">
	<!ENTITY ns_imrep "http://ns.adobe.com/ImageReplacement/1.0/">
	<!ENTITY ns_sfw "http://ns.adobe.com/SaveForWeb/1.0/">
	<!ENTITY ns_custom "http://ns.adobe.com/GenericCustomNamespace/1.0/">
	<!ENTITY ns_adobe_xpath "http://ns.adobe.com/XPath/1.0/">
]>
<svg version="1.1" xmlns:x="&ns_extend;" xmlns:i="&ns_ai;" xmlns:graph="&ns_graphs;"
	 xmlns="http://www.w3.org/2000/svg" xmlns:xlink="http://www.w3.org/1999/xlink" xmlns:a="http://ns.adobe.com/AdobeSVGViewerExtensions/3.0/"
	 x="0px" y="0px" width="541.2178px" height="328px" viewBox="0 0 541.2178 328" enable-background="new 0 0 541.2178 328"
	 xml:space="preserve">
<metadata>
	<sfw  xmlns="&ns_sfw;">
		<slices></slices>
		<sliceSourceBounds  bottomLeftOrigin="true" width="16383" height="16383" y="-8792" x="-2551"></sliceSourceBounds>
	</sfw>
</metadata>
<g id="back" display="none">
</g>
<g id="ORNAMENT">
</g>
<g id="Layer_5">
	<g>
		<g display="none">
			<defs>
				<polygon id="SVGID_7_" points="1448.5732,1499.8926 248.5732,1499.8926 248.5732,299.8921 1448.5732,299.8921 
					1448.5732,1499.8926 				"/>
			</defs>
			<clipPath id="SVGID_1_" display="inline">
				<use xlink:href="#SVGID_7_"  overflow="visible"/>
			</clipPath>
			<g display="inline" clip-path="url(#SVGID_1_)">
				<defs>
					<rect id="SVGID_9_" x="248.5732" y="299.8921" width="1200" height="1200.0005"/>
				</defs>
				<clipPath id="SVGID_2_">
					<use xlink:href="#SVGID_9_"  overflow="visible"/>
				</clipPath>
				<g transform="matrix(1 0 0 1 1.525879e-05 0)" clip-path="url(#SVGID_2_)">
					
						<image overflow="visible" width="2508" height="2504" xlink:href="37D8A3175BAA1531.jpg"  transform="matrix(0.48 0 0 -0.48 247.6133 1500.8516)">
					</image>
				</g>
			</g>
		</g>
	</g>
</g>
<g id="Layer_4">
	<g>
		<linearGradient id="SVGID_3_" gradientUnits="userSpaceOnUse" x1="80.6289" y1="157.9785" x2="451.7617" y2="157.9785">
			<stop  offset="0" style="stop-color:#C59862"/>
			<stop  offset="0.241" style="stop-color:#EEC288"/>
			<stop  offset="0.3725" style="stop-color:#FFD398"/>
			<stop  offset="0.4831" style="stop-color:#F0C48A"/>
			<stop  offset="0.6944" style="stop-color:#CA9D67"/>
			<stop  offset="0.7216" style="stop-color:#C59862"/>
			<stop  offset="1" style="stop-color:#DBB37B"/>
			<a:midPointStop  offset="0" style="stop-color:#C59862"/>
			<a:midPointStop  offset="0.4474" style="stop-color:#C59862"/>
			<a:midPointStop  offset="0.3725" style="stop-color:#FFD398"/>
			<a:midPointStop  offset="0.5618" style="stop-color:#FFD398"/>
			<a:midPointStop  offset="0.7216" style="stop-color:#C59862"/>
			<a:midPointStop  offset="0.4859" style="stop-color:#C59862"/>
			<a:midPointStop  offset="1" style="stop-color:#DBB37B"/>
		</linearGradient>
		<path fill="url(#SVGID_3_)" d="M162.4844,117.5195h28.418v5.3906c-4.8848,0-8.0371,0.7134-9.4629,2.1387
			c-1.4277,1.4263-2.1387,3.8379-2.1387,7.2363v49.9219c0,2.1484,0.2344,3.8877,0.7031,5.2148
			c0.4688,1.3281,1.5527,2.3535,3.252,3.0762c1.6992,0.7236,4.248,1.084,7.6465,1.084v5.3906h-39.8438v-5.3906
			c3.4355,0,5.9551-0.3418,7.5586-1.0254c1.6016-0.6826,2.6445-1.6787,3.1348-2.9883c0.4883-1.3086,0.7324-3.0957,0.7324-5.3613
			v-49.8047l-30,64.5703h-3.5742L98.5,132.4023v47.2852c0,2.5,0.0879,4.415,0.2637,5.7422c0.1758,1.3281,0.623,2.4609,1.3477,3.3984
			c0.7227,0.9375,1.8652,1.6318,3.4277,2.0801c1.5605,0.4492,3.7285,0.6738,6.5039,0.6738v5.3906H80.6289v-5.3906
			c2.8125,0,4.9883-0.2344,6.5332-0.7031c1.543-0.4688,2.666-1.1719,3.3691-2.1094s1.1328-2.0596,1.2891-3.3691
			c0.1543-1.3086,0.2344-3.2129,0.2344-5.7129v-45c0-3.3589-0.1758-5.7808-0.5273-7.2656
			c-0.3516-1.4839-1.3184-2.6074-2.9004-3.3691s-4.248-1.1426-7.998-1.1426v-5.3906h29.0625l26.3672,56.0742L162.4844,117.5195z
			 M257.6992,184.1699c-2.3438,2.833-4.7383,4.5908-7.1777,5.2734c-2.4414,0.6836-5.0098,1.0254-7.7051,1.0254h-6.3867
			c-2.8516,0-5.0488-0.2139-6.5918-0.6445c-1.5449-0.4297-2.6582-1.1221-3.3398-2.0801c-0.6836-0.957-1.1055-2.1582-1.2598-3.6035
			c-0.1562-1.4443-0.2344-3.7295-0.2344-6.8555v-18.6914h8.2031c2.7734,0,4.834,0.2344,6.1816,0.7031s2.334,1.3975,2.959,2.7832
			c0.623,1.3867,1.0156,3.5449,1.1719,6.4746h5.3906v-26.4258h-5.625c-0.1973,2.9297-0.5664,5.0786-1.1133,6.4453
			c-0.5488,1.3677-1.5039,2.2954-2.8711,2.7832c-1.3691,0.4888-3.4375,0.7324-6.2109,0.7324h-8.0859v-28.0664h14.8828
			c3.9453,0,6.9043,0.2251,8.877,0.6738c1.9707,0.4497,3.75,1.6606,5.332,3.6328c1.582,1.9731,2.9785,5.2441,4.1895,9.8145h5.3906
			l-1.0547-20.625h-65.918v5.3906c3.4766,0,6.043,0.3618,7.7051,1.084c1.6602,0.7231,2.7148,1.7192,3.1641,2.9883
			c0.4473,1.27,0.6738,3.0376,0.6738,5.3027v49.9219c0,3.4375-0.7031,5.8594-2.1094,7.2656s-4.5508,2.1094-9.4336,2.1094v5.3906
			h70.7812l0.6445-26.1328h-5.5078C261.6836,176.8955,260.043,181.3379,257.6992,184.1699z M332.1719,122.9102
			c3.5156,0,6.084,0.4302,7.7051,1.2891c1.6191,0.8599,2.6367,2.0801,3.0469,3.6621s0.6152,3.8579,0.6152,6.8262v36.2695
			l-45.2344-53.4375h-23.1445v5.3906c2.6562,0.2739,4.7363,0.791,6.2402,1.5527c1.502,0.7617,2.5859,1.7578,3.252,2.9883
			c0.6641,1.2305,1.084,2.666,1.2598,4.3066s0.2637,4.1016,0.2637,7.3828v40.5469c0,3.3203-0.1855,5.7334-0.5566,7.2363
			c-0.373,1.5039-1.3477,2.6572-2.9297,3.457c-1.582,0.8008-4.1309,1.2012-7.6465,1.2012v5.3906h29.5312v-5.3906
			c-3.75,0-6.4668-0.4004-8.1445-1.2012c-1.6797-0.7998-2.7246-1.9531-3.1348-3.457c-0.4102-1.5029-0.6152-3.916-0.6152-7.2363
			V135.918l51.9727,61.7578h5.3906v-62.9883c0-3.3589,0.1953-5.7808,0.5859-7.2656c0.3887-1.4839,1.4062-2.6074,3.0469-3.3691
			s4.3555-1.1426,8.1445-1.1426v-5.3906h-29.6484V122.9102z M422.5234,117.5195v5.3906c2.8496,0,5.0879,0.2153,6.709,0.6445
			c1.6191,0.4302,2.7832,1.1235,3.4863,2.0801c0.7031,0.9575,1.1328,2.061,1.2891,3.3105c0.1543,1.2505,0.2344,3.1641,0.2344,5.7422
			v28.5938c0,3.7119-0.168,6.9053-0.498,9.5801c-0.332,2.6758-1.0469,5.2646-2.1387,7.7637
			c-1.3691,3.2031-3.8184,5.8105-7.3535,7.8223c-3.5371,2.0127-7.3535,3.0176-11.4551,3.0176c-3.8301,0-7.334-0.9463-10.5176-2.8418
			c-3.1855-1.8945-5.4414-4.4238-6.7676-7.5879c-0.7031-1.9131-1.2227-4.1504-1.5527-6.709c-0.332-2.5576-0.498-5.5371-0.498-8.9355
			v-33.1055c0-2.3438,0.2539-4.1499,0.7617-5.4199c0.5059-1.269,1.6016-2.2456,3.2812-2.9297
			c1.6777-0.6831,4.2188-1.0254,7.6172-1.0254v-5.3906H365.043v5.3906c4.959,0,8.1152,0.7031,9.4629,2.1094
			s2.0215,3.8286,2.0215,7.2656l0.1172,33.1055c0,2.8125,0.0488,5.0889,0.1465,6.8262c0.0957,1.7383,0.4004,3.5947,0.9082,5.5664
			c0.5059,1.9727,1.2305,3.9355,2.168,5.8887c1.7188,3.5547,4.2383,6.4258,7.5586,8.6133c3.3184,2.1885,6.9043,3.7598,10.752,4.7168
			c3.8457,0.957,7.5879,1.4355,11.2207,1.4355c4.9219,0,10.0488-1.0059,15.3809-3.0176s9.4824-5.6924,12.4512-11.0449
			c1.6016-2.7734,2.5859-5.5166,2.959-8.2324c0.3711-2.7148,0.5566-6.7676,0.5566-12.1582v-29.2969
			c0-3.1641,0.1758-5.5078,0.5273-7.0312s1.2969-2.6953,2.8418-3.5156c1.543-0.8203,4.0918-1.2305,7.6465-1.2305v-5.3906H422.5234z"
			/>
		<g>
			<linearGradient id="SVGID_4_" gradientUnits="userSpaceOnUse" x1="13.6904" y1="160.7051" x2="517.998" y2="160.7051">
				<stop  offset="0" style="stop-color:#DBB37B"/>
				<stop  offset="0.2784" style="stop-color:#C59862"/>
				<stop  offset="0.3056" style="stop-color:#CA9D67"/>
				<stop  offset="0.5169" style="stop-color:#F0C48A"/>
				<stop  offset="0.6275" style="stop-color:#FFD398"/>
				<stop  offset="0.759" style="stop-color:#EEC288"/>
				<stop  offset="1" style="stop-color:#C59862"/>
				<a:midPointStop  offset="0" style="stop-color:#DBB37B"/>
				<a:midPointStop  offset="0.5141" style="stop-color:#DBB37B"/>
				<a:midPointStop  offset="0.2784" style="stop-color:#C59862"/>
				<a:midPointStop  offset="0.4382" style="stop-color:#C59862"/>
				<a:midPointStop  offset="0.6275" style="stop-color:#FFD398"/>
				<a:midPointStop  offset="0.5526" style="stop-color:#FFD398"/>
				<a:midPointStop  offset="1" style="stop-color:#C59862"/>
			</linearGradient>
			<path fill="url(#SVGID_4_)" d="M13.6904,18.5093v284.3911H517.998V200.4609v-29.5117V18.5093H13.6904z M16.4961,21.8203h12.0293
				v12.0298H16.4961V21.8203z M21.7637,37.0298v247.3511H16.5V37.0298H21.7637z M28.5254,299.5898H16.4961v-12.0293h12.0293
				V299.5898z M28.5273,284.3809h-5.2646V37.0298h5.2646V284.3809z M499.3789,299.6426H31.2871v-5.2637h468.0918V299.6426z
				 M499.3789,292.8672H31.2871v-5.2637h468.0918V292.8672z M252.9375,271.0596l12.9062-12.9062l12.9062,12.9062l-12.9062,12.9053
				L252.9375,271.0596z M261.752,284.2607H73.5908l-11.5557-11.5566h188.1611L261.752,284.2607z M281.4863,272.5771l188.0928-0.0068
				l-11.6914,11.6904h-188.085L281.4863,272.5771z M281.3809,269.6885l-15.6592-15.6592l-15.5342,15.5332H58.8936l-4.9326-4.9326
				h194.0156l17.8672-17.8672l18.1992,17.8369h193.5088l-4.9639,4.9619L281.3809,269.6885z M69.3369,284.2607h-8.8418
				l-28.1855-28.1953v-8.8389L69.3369,284.2607z M58.3721,284.2607H32.3096V258.208L58.3721,284.2607z M499.3789,284.2607h-26.251
				l26.251-26.2197V284.2607z M499.3789,255.8984l-28.375,28.3623h-8.8613l37.2363-37.2285V255.8984z M499.3789,242.7832
				L479.1113,263.04H284.3037l-18.46-18.2744l-18.6045,18.4824H52.5791l-20.2695-20.2695v-23.8779v-66.7915v-73.877l20.2695-20.27
				h194.6602l18.6045,18.4819l18.46-18.2739h194.8076l20.2676,20.2568V242.7832z M60.4951,37.1494h8.8418L32.3096,74.1836v-8.8389
				L60.4951,37.1494z M32.3096,63.2017V37.1494h26.0625L32.3096,63.2017z M281.4863,48.833l-11.6836-11.6836h188.085
				l11.6914,11.6899L281.4863,48.833z M472.5879,51.8481l4.9639,4.9629H284.043l-18.1992,17.8364l-17.8672-17.8672H53.9609
				l4.9326-4.9326h191.2939l15.5342,15.5337l15.6592-15.6597L472.5879,51.8481z M278.75,50.3506l-12.9062,12.9062l-12.9062-12.9062
				l12.9062-12.9058L278.75,50.3506z M250.1963,48.7061H62.0352l11.5557-11.5566H261.752L250.1963,48.7061z M499.3789,74.3784
				l-37.2363-37.229h8.8613l28.375,28.3623V74.3784z M499.3789,63.3691l-26.251-26.2197h26.251V63.3691z M499.3789,33.8071H31.2871
				V28.543h468.0918V33.8071z M499.3789,27.0312H31.2871v-5.2642h468.0918V27.0312z M502.334,36.8589h5.2646v247.6929h-5.2646
				V36.8589z M514.417,299.5898h-12.0293v-12.0293h12.0293V299.5898z M509.1094,284.5518V36.8589h5.2646v247.6929H509.1094z
				 M514.417,33.8501h-12.0293V21.8203h12.0293V33.8501z"/>
			<linearGradient id="SVGID_5_" gradientUnits="userSpaceOnUse" x1="256.4502" y1="50.2173" x2="275.2373" y2="50.2173">
				<stop  offset="0" style="stop-color:#DBB37B"/>
				<stop  offset="0.2784" style="stop-color:#C59862"/>
				<stop  offset="0.3056" style="stop-color:#CA9D67"/>
				<stop  offset="0.5169" style="stop-color:#F0C48A"/>
				<stop  offset="0.6275" style="stop-color:#FFD398"/>
				<stop  offset="0.759" style="stop-color:#EEC288"/>
				<stop  offset="1" style="stop-color:#C59862"/>
				<a:midPointStop  offset="0" style="stop-color:#DBB37B"/>
				<a:midPointStop  offset="0.5141" style="stop-color:#DBB37B"/>
				<a:midPointStop  offset="0.2784" style="stop-color:#C59862"/>
				<a:midPointStop  offset="0.4382" style="stop-color:#C59862"/>
				<a:midPointStop  offset="0.6275" style="stop-color:#FFD398"/>
				<a:midPointStop  offset="0.5526" style="stop-color:#FFD398"/>
				<a:midPointStop  offset="1" style="stop-color:#C59862"/>
			</linearGradient>
			<path fill="url(#SVGID_5_)" d="M256.4502,50.2173l9.3936,9.3936l9.3936-9.3936l-9.3936-9.3936L256.4502,50.2173z
				 M265.8438,56.5527l-6.335-6.3354l6.335-6.3354l6.335,6.3354L265.8438,56.5527z"/>
			<linearGradient id="SVGID_6_" gradientUnits="userSpaceOnUse" x1="256.4502" y1="271.1709" x2="275.2373" y2="271.1709">
				<stop  offset="0" style="stop-color:#DBB37B"/>
				<stop  offset="0.2784" style="stop-color:#C59862"/>
				<stop  offset="0.3056" style="stop-color:#CA9D67"/>
				<stop  offset="0.5169" style="stop-color:#F0C48A"/>
				<stop  offset="0.6275" style="stop-color:#FFD398"/>
				<stop  offset="0.759" style="stop-color:#EEC288"/>
				<stop  offset="1" style="stop-color:#C59862"/>
				<a:midPointStop  offset="0" style="stop-color:#DBB37B"/>
				<a:midPointStop  offset="0.5141" style="stop-color:#DBB37B"/>
				<a:midPointStop  offset="0.2784" style="stop-color:#C59862"/>
				<a:midPointStop  offset="0.4382" style="stop-color:#C59862"/>
				<a:midPointStop  offset="0.6275" style="stop-color:#FFD398"/>
				<a:midPointStop  offset="0.5526" style="stop-color:#FFD398"/>
				<a:midPointStop  offset="1" style="stop-color:#C59862"/>
			</linearGradient>
			<path fill="url(#SVGID_6_)" d="M275.2373,271.1709l-9.3936-9.3936l-9.3936,9.3936l9.3936,9.3936L275.2373,271.1709z
				 M265.8438,264.8354l6.335,6.3354l-6.335,6.3354l-6.335-6.3354L265.8438,264.8354z"/>
		</g>
	</g>
</g>
</svg>
