  <svg class="icon svg-icon svg-icon-keyboard" version="1.1" data-reactid="96" xmlns="http://www.w3.org/2000/svg" xmlns:xlink="http://www.w3.org/1999/xlink" x="0px" y="0px" viewBox="0 0 32 32" style="enable-background:new 0 0 1065.5 596.487;fill:#505050;" xml:space="preserve">
  <path d="M5 11c0-1.65 1.29-3 2.867-3h17.266C26.72 8 28 9.344 28 11v10c0 1.652-1.29 3-2.867 3H7.867C6.28 24 5 22.656 5 21V11zm2 10c0 .555.422 1 .942 1h17.116c.51 0 .942-.448.942-1V11c0-.555-.422-1-.942-1H7.942c-.51 0-.942.448-.942 1v10zm2-5.8c0-.11.086-.2.2-.2h1.6c.11 0 .2.086.2.2v1.6c0 .11-.086.2-.2.2H9.2c-.11 0-.2-.086-.2-.2v-1.6zm14-3c0-.11.086-.2.2-.2h1.6c.11 0 .2.086.2.2v1.6c0 .11-.086.2-.2.2h-1.6c-.11 0-.2-.086-.2-.2v-1.6zm-3 0c0-.11.086-.2.2-.2h1.6c.11 0 .2.086.2.2v1.6c0 .11-.086.2-.2.2h-1.6c-.11 0-.2-.086-.2-.2v-1.6zm-3 0c0-.11.086-.2.2-.2h1.6c.11 0 .2.086.2.2v1.6c0 .11-.086.2-.2.2h-1.6c-.11 0-.2-.086-.2-.2v-1.6zm-3 0c0-.11.086-.2.2-.2h1.6c.11 0 .2.086.2.2v1.6c0 .11-.086.2-.2.2h-1.6c-.11 0-.2-.086-.2-.2v-1.6zm-6 0c0-.11.086-.2.2-.2h1.6c.11 0 .2.086.2.2v1.6c0 .11-.086.2-.2.2H8.2c-.11 0-.2-.086-.2-.2v-1.6zm3 0c0-.11.086-.2.2-.2h1.6c.11 0 .2.086.2.2v1.6c0 .11-.086.2-.2.2h-1.6c-.11 0-.2-.086-.2-.2v-1.6zm1 3c0-.11.086-.2.2-.2h1.6c.11 0 .2.086.2.2v1.6c0 .11-.086.2-.2.2h-1.6c-.11 0-.2-.086-.2-.2v-1.6zm3 0c0-.11.086-.2.2-.2h1.6c.11 0 .2.086.2.2v1.6c0 .11-.086.2-.2.2h-1.6c-.11 0-.2-.086-.2-.2v-1.6zm3 0c0-.11.086-.2.2-.2h1.6c.11 0 .2.086.2.2v1.6c0 .11-.086.2-.2.2h-1.6c-.11 0-.2-.086-.2-.2v-1.6zm3 0c0-.11.086-.2.2-.2h1.6c.11 0 .2.086.2.2v1.6c0 .11-.086.2-.2.2h-1.6c-.11 0-.2-.086-.2-.2v-1.6zm-13 3c0-.11.086-.2.2-.2h1.6c.11 0 .2.086.2.2v1.6c0 .11-.086.2-.2.2H8.2c-.11 0-.2-.086-.2-.2v-1.6zm15 0c0-.11.086-.2.2-.2h1.6c.11 0 .2.086.2.2v1.6c0 .11-.086.2-.2.2h-1.6c-.11 0-.2-.086-.2-.2v-1.6zm-12 0c0-.11.095-.2.19-.2h10.62c.105 0 .19.086.19.2v1.6c0 .11-.095.2-.19.2H11.19a.193.193 0 0 1-.19-.2v-1.6z" data-reactid="97"></path></svg>
