<?xml version="1.0" encoding="utf-8"?>
<!-- Generator: Adobe Illustrator 21.1.0, SVG Export Plug-In . SVG Version: 6.00 Build 0)  -->
<svg version="1.1" xmlns="http://www.w3.org/2000/svg" xmlns:xlink="http://www.w3.org/1999/xlink" x="0px" y="0px"
	 viewBox="0 0 120 120" style="enable-background:new 0 0 120 120;" xml:space="preserve">
<style type="text/css">
	.st0{display:none;}
	.st1{fill:none;stroke:#2C364F;stroke-width:0.35;stroke-miterlimit:10;}
	.st2{display:none;fill:none;stroke:#141B26;stroke-miterlimit:10;}
	.st3{fill:#315397;}
	.st4{fill:#4D5224;}
	.st5{fill:#262A32;}
	.st6{fill:none;stroke:#315397;stroke-miterlimit:10;}
	.st7{display:inline;fill:none;stroke:#141B26;stroke-width:0.35;stroke-miterlimit:10;}
	.st8{display:inline;fill:none;stroke:#141B26;stroke-miterlimit:10;}
	.st9{display:inline;}
	.st10{fill:#3F4515;}
	.st11{fill:none;stroke:#141B26;stroke-width:0.35;stroke-miterlimit:10;}
	.st12{fill:none;stroke:#646B75;stroke-width:1.4;stroke-miterlimit:10;}
	.st13{display:inline;fill:#3F4515;}
	.st14{fill:#1E2838;}
	.st15{display:inline;fill:none;stroke:#2E3E57;stroke-width:1.2;stroke-miterlimit:10;}
	.st16{display:inline;fill:#667022;}
	.st17{display:inline;fill:#1E2838;}
	.st18{display:inline;opacity:3.000000e-02;fill:#FFFFFF;}
	.st19{display:inline;opacity:8.000000e-02;fill:#FFFFFF;}
	.st20{display:inline;opacity:0.13;fill:#FFFFFF;}
	.st21{display:inline;opacity:6.000000e-02;fill:#FFFFFF;}
	.st22{display:inline;opacity:5.000000e-02;fill:#FFFFFF;}
	.st23{display:inline;opacity:0.16;fill:#FFFFFF;}
	.st24{display:inline;opacity:2.000000e-02;fill:#FFFFFF;}
	.st25{display:inline;opacity:1.000000e-02;fill:#FFFFFF;}
	.st26{display:inline;opacity:4.000000e-02;fill:#FFFFFF;}
	.st27{display:inline;opacity:0.18;fill:#FFFFFF;}
	.st28{display:inline;opacity:0.11;fill:#FFFFFF;}
</style>
<g id="Layer_1">
	<rect class="st0" width="120" height="120"/>
	<image style="display:none;overflow:visible;" width="120" height="120" xlink:href="../dots.png" >
	</image>
	<line class="st1" x1="0.6" y1="0" x2="0.6" y2="120"/>
	<line class="st2" x1="0" y1="0" x2="0" y2="120"/>
	<line class="st2" x1="120" y1="0" x2="120" y2="120"/>
	<line class="st1" x1="120" y1="0.6" x2="0" y2="0.6"/>
	<line class="st2" x1="120" y1="120" x2="0" y2="120"/>
	<line class="st2" x1="120" y1="0" x2="0" y2="0"/>
	<g>
		<rect x="-0.7" y="118.7" class="st3" width="2.6" height="2.6"/>
		<rect x="-0.7" y="-0.7" class="st3" width="2.6" height="2.6"/>
		<rect x="118.7" y="118.7" class="st3" width="2.6" height="2.6"/>
		<rect x="118.7" y="-0.7" class="st3" width="2.6" height="2.6"/>
		<rect class="st4" width="1.2" height="1.2"/>
		<rect x="29.9" class="st4" width="1.2" height="1.2"/>
		<rect x="59.9" class="st4" width="1.2" height="1.2"/>
		<rect x="89.9" class="st4" width="1.2" height="1.2"/>
	</g>
	<g>
		<rect y="30" class="st4" width="1.2" height="1.2"/>
		<rect x="29.9" y="30" class="st4" width="1.2" height="1.2"/>
		<rect x="59.9" y="30" class="st4" width="1.2" height="1.2"/>
		<rect x="89.9" y="30" class="st4" width="1.2" height="1.2"/>
	</g>
	<g>
		<rect y="59.4" class="st4" width="1.2" height="1.2"/>
		<rect x="29.9" y="59.4" class="st4" width="1.2" height="1.2"/>
		<rect x="59.9" y="59.4" class="st4" width="1.2" height="1.2"/>
		<rect x="89.9" y="59.4" class="st4" width="1.2" height="1.2"/>
	</g>
	<g>
		<rect y="89.7" class="st4" width="1.2" height="1.2"/>
		<rect x="29.9" y="89.7" class="st4" width="1.2" height="1.2"/>
		<rect x="59.9" y="89.7" class="st4" width="1.2" height="1.2"/>
		<rect x="89.9" y="89.7" class="st4" width="1.2" height="1.2"/>
	</g>
</g>
<g id="Layer_1_copy" class="st0">
	<rect width="120" height="120"/>
	<image style="overflow:visible;" width="120" height="120" xlink:href="../dots.png" >
	</image>
	<line class="st7" x1="60.5" y1="0" x2="60.5" y2="120"/>
	<line class="st8" x1="0" y1="0" x2="0" y2="120"/>
	<line class="st8" x1="120" y1="0" x2="120" y2="120"/>
	<line class="st7" x1="120" y1="60" x2="0" y2="60"/>
	<line class="st8" x1="120" y1="120" x2="0" y2="120"/>
	<line class="st8" x1="120" y1="0" x2="0" y2="0"/>
	<g class="st9">
		<rect x="15.5" y="15.1" class="st10" width="1.2" height="1.2"/>
		<rect x="45.4" y="15.1" class="st10" width="1.2" height="1.2"/>
		<rect x="75.4" y="15.1" class="st10" width="1.2" height="1.2"/>
		<rect x="105.5" y="15.1" class="st10" width="1.2" height="1.2"/>
	</g>
	<g class="st9">
		<rect x="15.5" y="45.1" class="st10" width="1.2" height="1.2"/>
		<rect x="45.4" y="45.1" class="st10" width="1.2" height="1.2"/>
		<rect x="75.4" y="45.1" class="st10" width="1.2" height="1.2"/>
		<rect x="105.5" y="45.1" class="st10" width="1.2" height="1.2"/>
	</g>
	<g class="st9">
		<rect x="15.5" y="74.5" class="st10" width="1.2" height="1.2"/>
		<rect x="45.4" y="74.5" class="st10" width="1.2" height="1.2"/>
		<rect x="75.4" y="74.5" class="st10" width="1.2" height="1.2"/>
		<rect x="105.5" y="74.5" class="st10" width="1.2" height="1.2"/>
	</g>
	<g class="st9">
		<rect x="15.5" y="104.9" class="st10" width="1.2" height="1.2"/>
		<rect x="45.4" y="104.9" class="st10" width="1.2" height="1.2"/>
		<rect x="75.4" y="104.9" class="st10" width="1.2" height="1.2"/>
		<rect x="105.5" y="104.9" class="st10" width="1.2" height="1.2"/>
	</g>
</g>
<g id="Layer_1_copy_2" class="st0">
	<rect width="120" height="120"/>
	<image style="overflow:visible;" width="120" height="120" xlink:href="../dots.png" >
	</image>
	<line class="st11" x1="60.5" y1="0" x2="60.5" y2="120"/>
	<line class="st11" x1="120" y1="60" x2="0" y2="60"/>
	<line class="st12" x1="60.5" y1="54" x2="60.5" y2="66"/>
	<line class="st12" x1="66.5" y1="60" x2="54.5" y2="60"/>
	<g>
		<rect x="15.5" y="15.1" class="st13" width="1.2" height="1.2"/>
		<rect x="45.4" y="15.1" class="st13" width="1.2" height="1.2"/>
		<rect x="75.4" y="15.1" class="st13" width="1.2" height="1.2"/>
		<rect x="105.5" y="15.1" class="st13" width="1.2" height="1.2"/>
	</g>
	<g>
		<rect x="15.5" y="45.1" class="st13" width="1.2" height="1.2"/>
		<rect x="45.4" y="45.1" class="st13" width="1.2" height="1.2"/>
		<rect x="75.4" y="45.1" class="st13" width="1.2" height="1.2"/>
		<rect x="105.5" y="45.1" class="st13" width="1.2" height="1.2"/>
	</g>
	<g>
		<rect x="15.5" y="74.5" class="st13" width="1.2" height="1.2"/>
		<rect x="45.4" y="74.5" class="st13" width="1.2" height="1.2"/>
		<rect x="75.4" y="74.5" class="st13" width="1.2" height="1.2"/>
		<rect x="105.5" y="74.5" class="st13" width="1.2" height="1.2"/>
	</g>
	<g>
		<rect x="15.5" y="104.9" class="st13" width="1.2" height="1.2"/>
		<rect x="45.4" y="104.9" class="st13" width="1.2" height="1.2"/>
		<rect x="75.4" y="104.9" class="st13" width="1.2" height="1.2"/>
		<rect x="105.5" y="104.9" class="st13" width="1.2" height="1.2"/>
	</g>
</g>
<g id="Layer_1_copy_3" class="st0">
	<rect id="XMLID_1_" x="-18" y="-23" class="st14" width="147.8" height="170.8"/>
	<rect width="120" height="120"/>
	<image style="overflow:visible;" width="120" height="120" xlink:href="../dots.png" >
	</image>
	<line class="st15" x1="0" y1="-9.8" x2="0" y2="9.8"/>
	<line class="st15" x1="9.8" y1="0" x2="-9.8" y2="0"/>
	<line class="st15" x1="0" y1="110.2" x2="0" y2="129.8"/>
	<line class="st15" x1="9.8" y1="120" x2="-9.8" y2="120"/>
	<line class="st15" x1="120" y1="-9.8" x2="120" y2="9.8"/>
	<line class="st15" x1="129.8" y1="0" x2="110.2" y2="0"/>
	<line class="st15" x1="120" y1="110.2" x2="120" y2="129.8"/>
	<line class="st15" x1="129.8" y1="120" x2="110.2" y2="120"/>
	<rect x="15.5" y="15.1" class="st16" width="1.3" height="1.3"/>
	<rect x="45.4" y="15.1" class="st16" width="1.3" height="1.3"/>
	<rect x="75.4" y="15.1" class="st16" width="1.3" height="1.3"/>
	<rect x="105.4" y="15.1" class="st16" width="1.3" height="1.3"/>
	<rect x="15.5" y="45.1" class="st16" width="1.3" height="1.3"/>
	<rect x="45.4" y="45.1" class="st16" width="1.3" height="1.3"/>
	<rect x="75.4" y="45.1" class="st16" width="1.3" height="1.3"/>
	<rect x="105.4" y="45.1" class="st16" width="1.3" height="1.3"/>
	<rect x="15.5" y="74.5" class="st16" width="1.3" height="1.3"/>
	<rect x="45.4" y="74.5" class="st16" width="1.3" height="1.3"/>
	<rect x="75.4" y="74.5" class="st16" width="1.3" height="1.3"/>
	<rect x="105.4" y="74.5" class="st16" width="1.3" height="1.3"/>
	<rect x="15.5" y="104.8" class="st16" width="1.3" height="1.3"/>
	<rect x="45.4" y="104.8" class="st16" width="1.3" height="1.3"/>
	<rect x="75.4" y="104.8" class="st16" width="1.3" height="1.3"/>
	<rect x="105.4" y="104.8" class="st16" width="1.3" height="1.3"/>
</g>
</svg>
